<?xml version="1.0" encoding="UTF-8"?>
<svg xmlns="http://www.w3.org/2000/svg" xmlns:xlink="http://www.w3.org/1999/xlink" width="100px" height="75px" viewBox="0 0 100 75" version="1.1">
<g id="surface1">
<path style=" stroke:none;fill-rule:nonzero;fill:rgb(0%,0%,0%);fill-opacity:1;" d="M 25.285156 75.023438 C 25.242188 74.980469 25.207031 74.210938 25.207031 73.316406 L 25.207031 71.695312 L 26.003906 71.695312 C 27.007812 71.695312 27.378906 72.035156 27.253906 72.851562 C 27.207031 73.167969 27.234375 73.472656 27.316406 73.527344 C 27.511719 73.65625 27.507812 74.3125 27.316406 74.640625 C 27.175781 74.878906 25.449219 75.203125 25.28125 75.023438 Z M 27.023438 74.539062 C 27.25 74.390625 27.148438 73.648438 26.890625 73.539062 C 26.75 73.480469 26.386719 73.433594 26.082031 73.433594 C 25.566406 73.433594 25.53125 73.46875 25.53125 74.015625 C 25.53125 74.332031 25.582031 74.652344 25.648438 74.722656 C 25.761719 74.84375 26.765625 74.710938 27.023438 74.539062 Z M 26.796875 73.105469 C 26.914062 73.027344 26.988281 72.773438 26.957031 72.542969 C 26.910156 72.191406 26.800781 72.121094 26.21875 72.074219 L 25.53125 72.023438 L 25.53125 72.640625 C 25.53125 73.222656 25.5625 73.257812 26.054688 73.257812 C 26.34375 73.253906 26.679688 73.1875 26.796875 73.105469 Z M 56.105469 75.050781 C 55.121094 74.847656 54.71875 72.949219 55.492188 72.121094 C 56.070312 71.5 57.21875 71.515625 57.765625 72.152344 C 58.339844 72.820312 58.324219 73.988281 57.734375 74.574219 C 57.5 74.808594 57.214844 75 57.101562 75 C 56.988281 75 56.800781 75.027344 56.683594 75.0625 C 56.5625 75.097656 56.304688 75.089844 56.105469 75.050781 Z M 57.441406 74.429688 C 58.414062 73.527344 57.703125 71.683594 56.480469 71.9375 C 55.824219 72.074219 55.417969 72.632812 55.417969 73.398438 C 55.417969 74.660156 56.566406 75.242188 57.441406 74.429688 Z M 15.453125 74.085938 C 15.316406 73.582031 15.15625 72.828125 15.09375 72.40625 C 14.921875 71.246094 15.269531 71.660156 15.515625 72.910156 C 15.628906 73.492188 15.769531 74 15.832031 74.039062 C 15.890625 74.078125 16.039062 73.824219 16.15625 73.46875 C 16.273438 73.117188 16.480469 72.550781 16.613281 72.21875 L 16.851562 71.605469 L 17.296875 73 C 17.550781 73.804688 17.777344 74.28125 17.832031 74.128906 C 17.882812 73.988281 18.039062 73.417969 18.183594 72.867188 C 18.328125 72.316406 18.515625 71.867188 18.605469 71.867188 C 18.695312 71.867188 18.730469 72.003906 18.683594 72.171875 C 18.113281 74.289062 17.886719 75 17.777344 75 C 17.707031 75 17.484375 74.496094 17.28125 73.875 C 17.078125 73.257812 16.867188 72.785156 16.804688 72.824219 C 16.746094 72.863281 16.523438 73.371094 16.3125 73.949219 C 16.097656 74.527344 15.875 75 15.8125 75 C 15.75 75 15.589844 74.589844 15.453125 74.085938 Z M 20.84375 73.347656 L 20.84375 71.695312 L 21.722656 71.695312 C 22.207031 71.695312 22.648438 71.773438 22.703125 71.867188 C 22.765625 71.976562 22.488281 72.042969 21.984375 72.042969 L 21.167969 72.042969 L 21.167969 72.664062 C 21.167969 73.28125 21.171875 73.285156 21.808594 73.238281 C 22.160156 73.210938 22.5 73.242188 22.5625 73.308594 C 22.625 73.378906 22.332031 73.433594 21.914062 73.433594 L 21.148438 73.433594 L 21.199219 74.085938 C 21.25 74.734375 21.253906 74.738281 21.925781 74.695312 C 22.296875 74.667969 22.648438 74.726562 22.703125 74.824219 C 22.765625 74.933594 22.441406 75 21.824219 75 L 20.84375 75 Z M 32.636719 73.324219 L 32.636719 71.652344 L 33.554688 71.734375 C 34.679688 71.832031 35.226562 72.378906 35.21875 73.398438 C 35.210938 74.480469 34.609375 75 33.375 75 L 32.636719 75 Z M 34.269531 74.554688 C 34.894531 74.207031 35.140625 73.539062 34.886719 72.875 C 34.652344 72.265625 34.289062 72.042969 33.539062 72.042969 L 32.960938 72.042969 L 32.960938 73.316406 C 32.960938 74.019531 33.011719 74.644531 33.070312 74.710938 C 33.25 74.90625 33.761719 74.839844 34.269531 74.554688 Z M 37.808594 73.347656 L 37.808594 71.695312 L 38.695312 71.695312 C 39.183594 71.695312 39.585938 71.773438 39.585938 71.867188 C 39.585938 71.964844 39.257812 72.042969 38.859375 72.042969 C 38.144531 72.042969 38.132812 72.050781 38.132812 72.609375 C 38.132812 73.148438 38.160156 73.175781 38.699219 73.148438 C 39.007812 73.132812 39.304688 73.191406 39.351562 73.277344 C 39.402344 73.363281 39.148438 73.433594 38.789062 73.433594 L 38.132812 73.433594 L 38.132812 74.871094 L 38.859375 74.78125 C 39.257812 74.734375 39.585938 74.761719 39.585938 74.847656 C 39.585938 74.929688 39.183594 75 38.695312 75 L 37.808594 75 Z M 42.730469 74.359375 C 42.304688 73.28125 41.847656 72.035156 41.847656 71.949219 C 41.847656 71.902344 41.902344 71.867188 41.972656 71.867188 C 42.039062 71.867188 42.304688 72.453125 42.558594 73.171875 C 42.8125 73.890625 43.078125 74.476562 43.148438 74.476562 C 43.21875 74.476562 43.46875 73.851562 43.703125 73.085938 C 43.941406 72.320312 44.203125 71.695312 44.285156 71.695312 C 44.496094 71.695312 44.472656 71.789062 43.898438 73.417969 C 43.613281 74.226562 43.292969 74.914062 43.1875 74.953125 C 43.078125 74.992188 42.875 74.726562 42.730469 74.359375 Z M 46.855469 73.347656 L 46.855469 71.695312 L 47.742188 71.695312 C 48.230469 71.695312 48.632812 71.773438 48.632812 71.867188 C 48.632812 71.964844 48.304688 72.042969 47.90625 72.042969 C 47.191406 72.042969 47.179688 72.050781 47.179688 72.613281 C 47.179688 73.171875 47.191406 73.179688 47.824219 73.117188 C 48.226562 73.074219 48.46875 73.121094 48.46875 73.242188 C 48.46875 73.351562 48.1875 73.433594 47.824219 73.433594 L 47.179688 73.433594 L 47.179688 74.871094 L 47.90625 74.78125 C 48.304688 74.734375 48.632812 74.761719 48.632812 74.847656 C 48.632812 74.929688 48.230469 75 47.742188 75 L 46.855469 75 Z M 51.21875 73.316406 C 51.21875 72.394531 51.261719 71.683594 51.316406 71.742188 C 51.367188 71.800781 51.421875 72.496094 51.4375 73.292969 L 51.460938 74.738281 L 52.226562 74.710938 C 52.648438 74.695312 52.992188 74.753906 52.992188 74.839844 C 52.992188 74.929688 52.59375 75 52.105469 75 L 51.21875 75 Z M 60.382812 73.550781 C 60.316406 72.707031 60.300781 71.941406 60.351562 71.855469 C 60.5 71.59375 61.613281 71.667969 62.003906 71.964844 C 62.429688 72.285156 62.488281 73.105469 62.113281 73.441406 C 61.976562 73.5625 61.582031 73.652344 61.234375 73.636719 C 60.605469 73.609375 60.605469 73.613281 60.554688 74.347656 C 60.519531 74.863281 60.46875 74.625 60.382812 73.550781 Z M 61.816406 73.300781 C 62.085938 73.105469 62.175781 72.683594 62.011719 72.347656 C 61.910156 72.132812 61.675781 72.042969 61.226562 72.042969 C 60.609375 72.042969 60.585938 72.0625 60.585938 72.621094 C 60.585938 72.941406 60.636719 73.253906 60.695312 73.316406 C 60.839844 73.472656 61.589844 73.460938 61.816406 73.300781 Z M 64.464844 74.785156 C 64.464844 74.507812 64.867188 72.476562 65.058594 71.792969 C 65.121094 71.5625 65.273438 71.878906 65.546875 72.816406 C 66 74.363281 66.089844 74.355469 66.644531 72.714844 C 66.964844 71.757812 67.03125 71.667969 67.113281 72.042969 C 67.726562 74.808594 67.753906 75 67.546875 75 C 67.464844 75 67.355469 74.765625 67.304688 74.476562 C 67.253906 74.191406 67.164062 73.703125 67.109375 73.398438 L 67.007812 72.835938 L 66.519531 73.875 L 66.035156 74.914062 L 65.816406 74.390625 C 65.699219 74.105469 65.503906 73.59375 65.378906 73.261719 L 65.160156 72.652344 L 64.949219 73.695312 C 64.738281 74.726562 64.464844 75.347656 64.464844 74.785156 Z M 69.957031 73.347656 L 69.957031 71.695312 L 70.753906 71.695312 C 71.195312 71.695312 71.597656 71.773438 71.652344 71.867188 C 71.714844 71.972656 71.464844 72.042969 71.015625 72.042969 L 70.28125 72.042969 L 70.28125 74.808594 L 71.046875 74.871094 C 71.804688 74.9375 71.804688 74.9375 70.886719 74.96875 L 69.957031 75 Z M 74.320312 73.304688 L 74.324219 71.605469 L 75.285156 72.738281 C 75.8125 73.359375 76.246094 73.925781 76.25 74 C 76.253906 74.070312 76.328125 74.128906 76.417969 74.128906 C 76.511719 74.128906 76.582031 73.605469 76.582031 72.902344 C 76.582031 72.128906 76.640625 71.714844 76.742188 71.78125 C 76.832031 71.839844 76.902344 72.601562 76.898438 73.488281 L 76.890625 75.085938 L 75.773438 73.78125 L 74.652344 72.476562 L 74.648438 73.738281 C 74.644531 74.460938 74.574219 75 74.480469 75 C 74.382812 75 74.320312 74.320312 74.320312 73.304688 Z M 79.972656 73.519531 C 79.972656 72.058594 79.96875 72.042969 79.570312 72.042969 C 79.347656 72.042969 79.164062 71.964844 79.164062 71.867188 C 79.164062 71.769531 79.648438 71.695312 80.296875 71.695312 C 80.941406 71.695312 81.425781 71.769531 81.425781 71.867188 C 81.425781 71.964844 81.171875 72.042969 80.863281 72.042969 L 80.296875 72.042969 L 80.296875 73.519531 C 80.296875 74.390625 80.230469 75 80.132812 75 C 80.039062 75 79.972656 74.390625 79.972656 73.519531 Z M 70.726562 73.3125 C 70.925781 73.269531 71.21875 73.269531 71.371094 73.3125 C 71.527344 73.359375 71.363281 73.390625 71.007812 73.390625 C 70.652344 73.386719 70.523438 73.351562 70.726562 73.3125 Z M 47.460938 69.253906 C 46.523438 69.082031 45.78125 68.605469 44.996094 67.667969 C 44.171875 66.683594 43.894531 65.894531 43.898438 64.554688 C 43.902344 62.601562 44.878906 60.957031 46.519531 60.144531 C 47.640625 59.585938 49.5625 59.636719 50.667969 60.25 C 51.589844 60.765625 52.433594 61.707031 52.785156 62.621094 C 53.183594 63.640625 53.09375 65.464844 52.597656 66.5625 C 51.710938 68.511719 49.554688 69.644531 47.460938 69.253906 Z M 49.9375 67.683594 C 51.566406 66.789062 52.296875 64.632812 51.558594 62.90625 C 50.75 61.019531 48.679688 60.351562 46.839844 61.390625 C 46.140625 61.78125 45.890625 62.050781 45.527344 62.800781 C 43.960938 66.035156 46.9375 69.332031 49.9375 67.683594 Z M 0.0429688 64.628906 L 0.0859375 59.949219 L 2.277344 59.953125 C 4.378906 59.960938 4.511719 59.984375 5.429688 60.476562 C 6.625 61.121094 7.34375 62.097656 7.597656 63.433594 C 8.042969 65.734375 7.128906 67.691406 5.171875 68.636719 C 4.324219 69.046875 3.910156 69.121094 2.097656 69.210938 L 0 69.308594 Z M 3.964844 67.847656 C 4.8125 67.617188 5.941406 66.625 6.246094 65.835938 C 6.53125 65.105469 6.53125 63.664062 6.246094 62.945312 C 5.738281 61.660156 4.570312 61.078125 2.488281 61.078125 L 1.136719 61.078125 L 1.136719 64.441406 C 1.136719 66.292969 1.183594 67.859375 1.242188 67.921875 C 1.414062 68.109375 3.1875 68.058594 3.964844 67.847656 Z M 9.050781 69.132812 C 9.050781 69.054688 9.691406 67.578125 10.476562 65.859375 C 11.261719 64.140625 12.179688 62.082031 12.523438 61.292969 C 12.867188 60.5 13.210938 59.875 13.292969 59.902344 C 13.410156 59.945312 16.566406 67.160156 17.136719 68.691406 C 17.273438 69.058594 17.242188 69.082031 16.632812 69.082031 C 15.980469 69.082031 15.980469 69.082031 15.480469 67.867188 L 14.980469 66.648438 L 11.390625 66.648438 L 10.828125 67.910156 C 10.289062 69.113281 10.238281 69.171875 9.65625 69.222656 C 9.324219 69.253906 9.050781 69.214844 9.050781 69.132812 Z M 14.382812 65.296875 C 14.386719 65.089844 13.34375 62.644531 13.253906 62.644531 C 13.164062 62.644531 12.121094 65.089844 12.121094 65.296875 C 12.121094 65.371094 12.628906 65.429688 13.253906 65.429688 C 13.875 65.429688 14.382812 65.371094 14.382812 65.296875 Z M 19.308594 69.050781 C 19.261719 68.921875 19.242188 66.746094 19.265625 64.210938 L 19.3125 59.609375 L 21.394531 62.648438 C 22.539062 64.320312 23.527344 65.753906 23.59375 65.832031 C 23.65625 65.910156 24.671875 64.578125 25.847656 62.875 C 27.019531 61.167969 28.046875 59.746094 28.128906 59.714844 C 28.214844 59.679688 28.277344 61.628906 28.277344 64.457031 L 28.277344 69.257812 L 27.152344 69.257812 L 27.109375 66.273438 L 27.066406 63.285156 L 25.484375 65.488281 C 24.617188 66.699219 23.800781 67.691406 23.671875 67.691406 C 23.542969 67.691406 22.765625 66.730469 21.941406 65.558594 L 20.441406 63.429688 L 20.359375 66.300781 L 20.28125 69.171875 L 19.835938 69.226562 C 19.574219 69.257812 19.355469 69.183594 19.308594 69.050781 Z M 31.261719 69.046875 C 31.214844 68.921875 31.199219 66.78125 31.222656 64.296875 L 31.265625 59.773438 L 32.320312 59.664062 L 32.234375 69.171875 L 31.789062 69.226562 C 31.527344 69.257812 31.308594 69.183594 31.261719 69.046875 Z M 34.253906 69.082031 C 34.253906 68.816406 38.460938 59.8125 38.542969 59.898438 C 38.625 59.988281 42.492188 68.917969 42.492188 69.019531 C 42.492188 69.054688 42.214844 69.082031 41.871094 69.082031 C 41.257812 69.082031 41.242188 69.070312 40.75 67.867188 L 40.25 66.648438 L 36.574219 66.648438 L 36.105469 67.710938 C 35.84375 68.292969 35.488281 68.882812 35.3125 69.015625 C 34.9375 69.296875 34.253906 69.339844 34.253906 69.082031 Z M 39.585938 65.277344 C 39.585938 65.195312 39.339844 64.546875 39.042969 63.84375 L 38.5 62.558594 L 37.910156 63.816406 C 37.589844 64.507812 37.324219 65.152344 37.324219 65.25 C 37.324219 65.355469 37.789062 65.429688 38.453125 65.429688 C 39.078125 65.429688 39.585938 65.359375 39.585938 65.277344 Z M 58.757812 69.140625 C 58.605469 68.980469 58.621094 59.644531 58.769531 59.714844 C 58.835938 59.746094 60.253906 61.269531 61.917969 63.097656 L 64.941406 66.421875 L 64.984375 63.183594 L 65.03125 59.949219 L 65.53125 59.894531 L 66.03125 59.84375 L 66.117188 61.894531 C 66.164062 63.027344 66.179688 64.773438 66.148438 65.777344 C 66.117188 66.78125 66.089844 67.996094 66.085938 68.472656 L 66.078125 69.339844 L 63.050781 66.078125 C 61.382812 64.285156 59.964844 62.820312 59.898438 62.820312 C 59.832031 62.820312 59.777344 64.269531 59.777344 66.039062 L 59.777344 69.257812 L 59.320312 69.257812 C 59.070312 69.257812 58.816406 69.207031 58.757812 69.140625 Z M 69.257812 69.140625 C 69.199219 69.078125 69.148438 66.964844 69.148438 64.441406 L 69.148438 59.859375 L 74.824219 59.859375 L 74.722656 60.992188 L 72.5 61.039062 L 70.28125 61.089844 L 70.28125 63.515625 L 74.964844 63.515625 L 74.964844 64.734375 L 70.28125 64.734375 L 70.28125 68.039062 L 75.125 68.039062 L 75.125 69.257812 L 72.246094 69.257812 C 70.660156 69.257812 69.316406 69.207031 69.257812 69.140625 Z M 85.949219 65.167969 L 85.949219 61.078125 L 83.367188 61.078125 L 83.367188 59.859375 L 89.6875 59.859375 L 89.585938 60.992188 L 88.332031 61.042969 L 87.082031 61.09375 L 87.082031 69.257812 L 85.949219 69.257812 Z M 93.453125 68.9375 C 91.730469 68.074219 90.882812 66.625 90.890625 64.558594 C 90.898438 62.554688 91.707031 61.128906 93.328125 60.273438 C 94.085938 59.875 94.433594 59.800781 95.464844 59.8125 C 98.269531 59.839844 100.070312 61.699219 100.058594 64.558594 C 100.050781 66.414062 99.199219 67.859375 97.582031 68.761719 C 96.574219 69.328125 94.410156 69.417969 93.453125 68.9375 Z M 96.113281 68.027344 C 97.910156 67.613281 98.972656 66.125 98.84375 64.203125 C 98.75 62.796875 98.164062 61.882812 96.984375 61.300781 C 94.5625 60.109375 92.089844 61.777344 92.089844 64.605469 C 92.089844 66.644531 93.136719 67.855469 95.191406 68.195312 C 95.253906 68.203125 95.667969 68.128906 96.113281 68.027344 Z M 78.84375 65.082031 L 78.84375 61.078125 L 76.257812 61.078125 L 76.257812 59.859375 L 82.234375 59.859375 L 82.234375 61.078125 L 79.972656 61.078125 L 79.972656 69.082031 L 78.84375 69.082031 Z M 36.355469 58.722656 C 36.355469 58.671875 36.652344 58.199219 37.019531 57.679688 C 37.59375 56.859375 37.761719 56.730469 38.226562 56.730469 C 38.601562 56.730469 38.886719 56.867188 39.167969 57.199219 C 39.550781 57.640625 39.585938 57.652344 39.875 57.371094 C 40.167969 57.082031 41.039062 56.957031 41.039062 57.199219 C 41.039062 57.460938 39.664062 58.816406 39.402344 58.816406 C 39.246094 58.816406 38.96875 58.582031 38.777344 58.292969 C 38.585938 58.007812 38.34375 57.773438 38.230469 57.773438 C 38.121094 57.773438 37.820312 58.007812 37.566406 58.292969 C 37.171875 58.738281 36.355469 59.027344 36.355469 58.722656 Z M 44.269531 51.46875 C 44.269531 51.398438 44.6875 51.109375 45.199219 50.832031 C 48.457031 49.046875 51.796875 45.347656 53.019531 42.171875 C 53.433594 41.089844 53.726562 40.941406 53.5625 41.894531 C 53.503906 42.253906 53.414062 44.519531 53.371094 46.929688 L 53.292969 51.316406 L 52.617188 51.410156 C 51.554688 51.5625 44.269531 51.609375 44.269531 51.46875 Z M 16.320312 48.167969 L 16.320312 44.914062 L 25.003906 44.859375 L 33.6875 44.800781 L 34.980469 44.332031 C 38.289062 43.132812 40.453125 40.820312 41.199219 37.6875 C 41.503906 36.390625 41.523438 35.773438 41.523438 26.808594 C 41.523438 16.175781 41.507812 15.980469 40.433594 14.289062 C 39.382812 12.632812 37.191406 10.984375 35.214844 10.371094 C 33.292969 9.773438 32.542969 9.726562 24.441406 9.734375 L 16.320312 9.742188 L 16.320312 3.109375 L 26.054688 3.175781 C 36.664062 3.25 37.496094 3.324219 41.078125 4.457031 C 41.339844 4.539062 41.363281 4.359375 41.363281 2.273438 L 41.363281 0 L 44.742188 0 L 47.457031 3.425781 C 48.945312 5.308594 50.949219 7.816406 51.902344 8.992188 L 53.640625 11.132812 L 53.640625 22.589844 C 53.640625 33.417969 53.621094 34.125 53.324219 35.390625 C 51.847656 41.597656 46.191406 47.886719 40.070312 50.121094 C 37.28125 51.136719 36.636719 51.207031 29.246094 51.273438 C 25.46875 51.308594 21.015625 51.355469 19.351562 51.378906 L 16.320312 51.421875 Z M 75.125 50.609375 C 74.515625 49.863281 72.203125 46.957031 69.816406 43.949219 C 61.042969 32.875 57.414062 28.367188 56.816406 27.789062 C 56.503906 27.488281 56.488281 27.226562 56.429688 21.523438 C 56.390625 17.738281 56.425781 15.480469 56.527344 15.320312 C 56.664062 15.109375 56.753906 15.15625 57.0625 15.582031 C 57.269531 15.863281 58.019531 16.808594 58.730469 17.675781 C 61.386719 20.933594 63.015625 22.964844 65.277344 25.839844 C 69.320312 30.984375 72.410156 34.867188 73.011719 35.550781 L 73.59375 36.210938 L 73.671875 19.714844 L 73.753906 3.21875 L 77.066406 3.171875 C 78.886719 3.144531 80.527344 3.160156 80.707031 3.207031 C 80.972656 3.277344 81.03125 3.414062 80.996094 3.867188 C 80.972656 4.179688 80.914062 13.835938 80.867188 25.320312 C 80.773438 48.980469 80.75 50.902344 80.566406 51.101562 C 80.492188 51.183594 79.375 51.273438 78.082031 51.304688 L 75.734375 51.359375 Z M 16.320312 27.277344 L 16.320312 13.226562 L 23.753906 13.226562 L 23.75 27.015625 C 23.75 34.601562 23.695312 40.898438 23.628906 41.011719 C 23.542969 41.15625 22.445312 41.234375 19.914062 41.273438 L 16.320312 41.328125 Z M 16.320312 27.277344 "/>
</g>
</svg>
